<svg width="314" height="353" viewBox="0 0 314 353" fill="none" xmlns="http://www.w3.org/2000/svg">
<g filter="url(#filter0_d_4777_294)">
<path d="M149.524 32.0186C134.086 48.1009 143.092 68.7754 149.524 77.1024C146.522 85.3365 153.706 96.6513 157.672 101.279C146.265 113.931 157.136 133.748 163.998 142.075C142.727 154.726 172.861 161.284 190.586 162.981C238.917 172.845 248.248 157.156 246.872 148.079C262.053 142.503 263.133 127.422 261.775 120.578C289.392 105.654 283.61 85.3759 277.267 77.1024C288.417 29.156 257.04 31.8936 239.957 39.2556C221.002 18.4989 201.826 31.6791 194.607 40.8639C190.104 36.9612 183.618 39.2378 180.937 40.8639C176.899 31.2145 164.963 15.9364 149.524 32.0186Z" fill="white"/>
<path d="M149.524 32.0186C134.086 48.1009 143.092 68.7754 149.524 77.1024C146.522 85.3365 153.706 96.6513 157.672 101.279C146.265 113.931 157.136 133.748 163.998 142.075C142.727 154.726 172.861 161.284 190.586 162.981C238.917 172.845 248.248 157.156 246.872 148.079C262.053 142.503 263.133 127.422 261.775 120.578C289.392 105.654 283.61 85.3759 277.267 77.1024C288.417 29.156 257.04 31.8936 239.957 39.2556C221.002 18.4989 201.826 31.6791 194.607 40.8639C190.104 36.9612 183.618 39.2378 180.937 40.8639C176.899 31.2145 164.963 15.9364 149.524 32.0186Z" stroke="white" stroke-width="0.134919"/>
</g>
<path d="M223.701 39.1775C212.725 37.0341 201.928 43.0051 196.819 53.1045C194.906 52.1224 192.835 51.3933 190.635 50.9637C177.207 48.3415 164.047 57.8636 161.242 72.232C159.212 82.6258 163.156 92.7085 170.576 98.4838C168.879 101.25 167.63 104.388 166.964 107.798C164.158 122.166 172.768 135.94 186.196 138.562C192.985 139.888 199.707 138.109 205.055 134.168C208.528 139.831 214.086 144.008 220.876 145.334C234.304 147.957 247.463 138.434 250.269 124.066C250.929 120.685 250.958 117.338 250.44 114.16C259.564 111.652 267.093 103.761 269.135 93.3019C271.941 78.9335 263.331 65.16 249.903 62.5378C247.703 62.1081 245.51 62.0045 243.368 62.1949C242.434 50.9153 234.677 41.321 223.701 39.1775Z" fill="#A3BEF5"/>
<path d="M208.788 114.451C201.759 114.451 195.213 123.892 195.213 130.06C195.213 136.229 197.827 141.317 198.861 143.202C196.984 144.06 192.639 145.83 191.135 149.532C189.74 155.056 207.03 155.216 214.076 155.184C222.345 155.409 237.012 152.643 237.065 148.137C237.065 147.823 237.097 144.403 237.529 141.01C237.707 139.619 237.877 138.275 238.007 137.237" stroke="black" stroke-width="1.61903"/>
<path d="M192.539 152.495C177.442 152.495 169.834 149.351 169.738 147.943C169.738 145.947 173.648 143.784 175.604 142.953C173.376 138.901 172.307 134.556 172.307 129.02" stroke="black" stroke-width="1.61903"/>
<path d="M200.9 76.8926C204.209 79.0694 208.736 78.0295 211.012 74.5701C208.729 78.04 204.209 79.0694 200.9 76.8926ZM200.9 76.8926C197.591 74.7159 196.753 70.1469 199.029 66.6875C196.746 70.1574 197.591 74.7159 200.9 76.8926Z" stroke="black" stroke-width="1.61903"/>
<circle cx="215.947" cy="72.2877" r="1.41665" fill="black"/>
<circle cx="199.69" cy="61.154" r="1.48411" fill="black"/>
<path d="M244.888 65.4726L249.987 53.5717C248.576 51.7083 245.58 47.3948 246.812 46.1611C247.004 45.9683 248.255 45.2827 251.527 47.3068L252.296 52.126C251.655 49.3423 250.757 43.6718 252.296 43.2586C253.259 43.0658 254.971 43.1237 257.973 51.0657C257.947 50.9694 258.006 45.0778 258.647 44.2224C258.935 43.8369 260.956 41.9093 263.65 53.5717C263.746 53.5717 267.884 50.6802 269.616 52.126C269.808 52.126 272.117 60.3642 262.207 78.9664" stroke="black" stroke-width="1.61903"/>
<path d="M176.484 60.8725L167.374 46.6912C168.083 44.9588 169.288 41.2825 168.437 40.4356C167.374 39.8581 166.02 40.9168 163.7 44.4776C164.473 42.8736 165.788 39.4154 164.86 38.4145C163.99 37.9333 161.844 38.2991 160.219 43.6115C160.123 43.6115 162.056 37.6446 160.219 37.0672C159.188 36.6181 156.352 38.4338 153.259 49.2896C153.452 49.2896 150.455 47.4611 149.682 49.2896C149.234 50.3483 151.87 57.0229 164.399 78.9656" stroke="black" stroke-width="1.61903"/>
<g filter="url(#filter1_d_4777_294)">
<path d="M124.104 71.913C134.911 83.1706 128.607 97.6428 124.104 103.472C126.205 109.236 121.177 117.156 118.4 120.396C126.385 129.252 118.775 143.123 113.972 148.952C128.862 157.808 107.768 162.399 95.3604 163.587C61.5287 170.492 54.9971 159.509 55.9602 153.155C45.3334 149.252 44.5779 138.695 45.5285 133.905C26.1961 123.458 30.2437 109.263 34.6841 103.472C26.8791 69.9092 48.8431 71.8255 60.8008 76.9789C74.0693 62.4492 87.4928 71.6754 92.5461 78.1047C95.6981 75.3729 100.238 76.9664 102.115 78.1047C104.941 71.3502 113.297 60.6555 124.104 71.913Z" fill="white"/>
<path d="M124.104 71.913C134.911 83.1706 128.607 97.6428 124.104 103.472C126.205 109.236 121.177 117.156 118.4 120.396C126.385 129.252 118.775 143.123 113.972 148.952C128.862 157.808 107.768 162.399 95.3604 163.587C61.5287 170.492 54.9971 159.509 55.9602 153.155C45.3334 149.252 44.5779 138.695 45.5285 133.905C26.1961 123.458 30.2437 109.263 34.6841 103.472C26.8791 69.9092 48.8431 71.8255 60.8008 76.9789C74.0693 62.4492 87.4928 71.6754 92.5461 78.1047C95.6981 75.3729 100.238 76.9664 102.115 78.1047C104.941 71.3502 113.297 60.6555 124.104 71.913Z" stroke="white" stroke-width="0.0944432"/>
</g>
<path d="M72.1806 76.9253C79.8637 75.4249 87.4216 79.6045 90.9981 86.6741C92.3369 85.9867 93.7865 85.4763 95.3267 85.1755C104.726 83.34 113.938 90.0055 115.902 100.063C117.323 107.339 114.562 114.397 109.368 118.44C110.556 120.376 111.43 122.572 111.896 124.959C113.861 135.017 107.833 144.659 98.4339 146.494C93.6813 147.422 88.9765 146.177 85.2324 143.419C82.8012 147.383 78.9106 150.307 74.1579 151.235C64.7586 153.071 55.5467 146.405 53.5826 136.347C53.1204 133.981 53.1007 131.637 53.4632 129.413C47.0761 127.657 41.8062 122.133 40.3765 114.812C38.4124 104.754 44.4397 95.113 53.839 93.2774C55.3792 92.9767 56.9143 92.9042 58.4133 93.0374C59.0674 85.1417 64.4975 78.4256 72.1806 76.9253Z" fill="#A3BEF5"/>
<path d="M82.6192 129.617C87.5396 129.617 92.1219 136.226 92.1219 140.544C92.1219 144.862 90.2921 148.423 89.5678 149.743C90.8824 150.344 93.9236 151.583 94.9764 154.173C95.953 158.041 83.8499 158.153 78.9177 158.13C73.1296 158.288 62.8626 156.351 62.8251 153.197C62.8251 152.977 62.8031 150.584 62.5003 148.208C62.3762 147.235 62.2573 146.294 62.166 145.567" stroke="black" stroke-width="1.13332"/>
<path d="M93.9932 156.248C104.561 156.248 109.887 154.047 109.954 153.061C109.954 151.664 107.217 150.15 105.848 149.568C107.407 146.731 108.156 143.69 108.156 139.814" stroke="black" stroke-width="1.13332"/>
<path d="M88.1409 103.325C85.8246 104.849 82.6555 104.121 81.0626 101.699C82.6603 104.128 85.8246 104.849 88.1409 103.325ZM88.1409 103.325C90.4572 101.802 91.0436 98.6032 89.4507 96.1816C91.0485 98.6106 90.4572 101.802 88.1409 103.325Z" stroke="black" stroke-width="1.13332"/>
<circle cx="0.991653" cy="0.991653" r="0.991653" transform="matrix(-1 0 0 1 78.5991 99.1113)" fill="black"/>
<circle cx="1.03887" cy="1.03887" r="1.03887" transform="matrix(-1 0 0 1 90.0269 91.2695)" fill="black"/>
<path d="M57.3496 95.3318L53.78 87.0012C54.7678 85.6968 56.8647 82.6773 56.0026 81.8137C55.8679 81.6788 54.9923 81.1988 52.7023 82.6157L52.1635 85.9892C52.6125 84.0406 53.2411 80.0712 52.1635 79.782C51.49 79.6471 50.2911 79.6875 48.1897 85.247C48.2078 85.1795 48.1666 81.0554 47.7183 80.4567C47.5162 80.1868 46.1018 78.8375 44.216 87.0012C44.1486 87.0012 41.2525 84.9771 40.0401 85.9892C39.9054 85.9892 38.289 91.7559 45.2262 104.777" stroke="black" stroke-width="1.13332"/>
<path d="M105.232 92.111L111.61 82.184C111.113 80.9714 110.27 78.3979 110.865 77.8051C111.61 77.4009 112.557 78.1419 114.181 80.6345C113.64 79.5118 112.719 77.091 113.369 76.3904C113.978 76.0535 115.48 76.3095 116.617 80.0282C116.685 80.0282 115.332 75.8514 116.617 75.4472C117.339 75.1328 119.324 76.4039 121.49 84.0029C121.355 84.0029 123.452 82.723 123.994 84.0029C124.307 84.744 122.462 89.4162 113.691 104.776" stroke="black" stroke-width="1.13332"/>
<path d="M22.6602 278.516C21.853 278.516 21.1355 278.247 20.5077 277.709C19.9696 277.081 19.7005 276.364 19.7005 275.557C19.7005 275.198 19.7902 274.884 19.9696 274.615L50.6424 188.516C50.9115 187.529 51.4945 186.587 52.3913 185.691C53.3779 184.794 54.6783 184.345 56.2927 184.345H80.9117C82.6157 184.345 83.9162 184.794 84.813 185.691C85.7099 186.587 86.2929 187.529 86.5619 188.516L117.369 274.615C117.459 274.884 117.504 275.198 117.504 275.557C117.504 276.364 117.19 277.081 116.562 277.709C116.024 278.247 115.351 278.516 114.544 278.516H93.8265C92.3019 278.516 91.1808 278.158 90.4633 277.44C89.7458 276.723 89.2525 276.05 88.9835 275.422L84.813 264.122H52.3913L48.2209 275.422C47.9518 276.05 47.4586 276.723 46.7411 277.44C46.1133 278.158 44.9922 278.516 43.3778 278.516H22.6602ZM58.5797 241.386H78.6247L68.5349 211.117L58.5797 241.386Z" fill="black"/>
<path d="M129.928 278.516C129.031 278.516 128.224 278.202 127.506 277.575C126.789 276.857 126.43 276.005 126.43 275.018V187.843C126.43 186.857 126.789 186.049 127.506 185.422C128.224 184.704 129.031 184.345 129.928 184.345H151.318C152.305 184.345 153.112 184.704 153.74 185.422C154.457 186.049 154.816 186.857 154.816 187.843V216.094L174.861 187.17C175.309 186.543 175.937 185.915 176.744 185.287C177.551 184.659 178.673 184.345 180.108 184.345H204.727C205.534 184.345 206.206 184.659 206.744 185.287C207.372 185.825 207.686 186.498 207.686 187.305C207.686 187.843 207.507 188.336 207.148 188.785L178.897 229.413L209.57 274.077C209.928 274.436 210.108 274.929 210.108 275.557C210.108 276.364 209.794 277.081 209.166 277.709C208.628 278.247 207.955 278.516 207.148 278.516H181.722C180.018 278.516 178.717 278.113 177.821 277.306C177.013 276.498 176.52 275.915 176.341 275.557L154.816 244.346V275.018C154.816 276.005 154.457 276.857 153.74 277.575C153.112 278.202 152.305 278.516 151.318 278.516H129.928Z" fill="black"/>
<path d="M222.68 278.516C221.783 278.516 220.976 278.202 220.258 277.575C219.541 276.857 219.182 276.005 219.182 275.018V187.843C219.182 186.857 219.541 186.049 220.258 185.422C220.976 184.704 221.783 184.345 222.68 184.345H245.55C246.537 184.345 247.344 184.704 247.972 185.422C248.689 186.049 249.048 186.857 249.048 187.843V275.018C249.048 276.005 248.689 276.857 247.972 277.575C247.344 278.202 246.537 278.516 245.55 278.516H222.68Z" fill="black"/>
<path d="M264.748 220.399C263.941 220.399 263.268 220.13 262.73 219.592C262.192 219.054 261.968 218.247 262.057 217.171L266.497 187.978C266.676 186.722 267.169 185.601 267.977 184.614C268.873 183.538 270.174 183 271.878 183H290.443C291.25 183 291.923 183.269 292.461 183.807C292.999 184.345 293.268 185.018 293.268 185.825C293.268 186.274 293.223 186.677 293.134 187.036L281.564 216.363C281.205 217.26 280.622 218.157 279.815 219.054C279.098 219.951 277.932 220.399 276.317 220.399H264.748Z" fill="black"/>
<path d="M29.9746 327.51C29.6153 327.51 29.305 327.396 29.0437 327.167C28.8151 326.906 28.7008 326.596 28.7008 326.236V302.327H20.2738C19.9146 302.327 19.6043 302.213 19.343 301.984C19.1143 301.723 19 301.413 19 301.053V294.488C19 294.129 19.1143 293.835 19.343 293.606C19.6043 293.345 19.9146 293.214 20.2738 293.214H47.8084C48.1676 293.214 48.4616 293.345 48.6902 293.606C48.9515 293.835 49.0822 294.129 49.0822 294.488V301.053C49.0822 301.413 48.9515 301.723 48.6902 301.984C48.4616 302.213 48.1676 302.327 47.8084 302.327H39.3814V326.236C39.3814 326.596 39.2508 326.906 38.9895 327.167C38.7608 327.396 38.4669 327.51 38.1076 327.51H29.9746Z" fill="black"/>
<path d="M68.1086 328C65.071 328 62.3927 327.526 60.0737 326.579C57.7873 325.632 55.9908 324.162 54.6843 322.17C53.4105 320.145 52.7736 317.597 52.7736 314.527V294.488C52.7736 294.129 52.9042 293.835 53.1655 293.606C53.4268 293.345 53.7208 293.214 54.0474 293.214H62.0334C62.3927 293.214 62.6867 293.345 62.9153 293.606C63.1766 293.835 63.3072 294.129 63.3072 294.488V314.38C63.3072 316.046 63.7155 317.303 64.5321 318.152C65.3486 319.001 66.5245 319.426 68.0596 319.426C69.5948 319.426 70.7543 319.001 71.5382 318.152C72.3548 317.303 72.763 316.046 72.763 314.38V294.488C72.763 294.129 72.8937 293.835 73.155 293.606C73.4163 293.345 73.7266 293.214 74.0859 293.214H82.0229C82.3822 293.214 82.6761 293.345 82.9048 293.606C83.1661 293.835 83.2967 294.129 83.2967 294.488V314.527C83.2967 317.597 82.6598 320.145 81.386 322.17C80.1121 324.162 78.332 325.632 76.0456 326.579C73.7593 327.526 71.1136 328 68.1086 328Z" fill="black"/>
<path d="M100.177 327.51C99.8508 327.51 99.5568 327.396 99.2955 327.167C99.0342 326.906 98.9035 326.596 98.9035 326.236V294.488C98.9035 294.129 99.0342 293.835 99.2955 293.606C99.5568 293.345 99.8508 293.214 100.177 293.214H114.484C117.325 293.214 119.791 293.639 121.882 294.488C124.005 295.337 125.654 296.628 126.83 298.359C128.006 300.09 128.594 302.262 128.594 304.875C128.594 307.488 128.006 309.644 126.83 311.342C125.654 313.008 124.005 314.233 121.882 315.017C119.791 315.801 117.325 316.193 114.484 316.193H109.829V326.236C109.829 326.596 109.699 326.906 109.437 327.167C109.209 327.396 108.915 327.51 108.555 327.51H100.177ZM109.633 308.305H114.239C115.186 308.305 115.986 308.027 116.639 307.472C117.325 306.884 117.668 305.985 117.668 304.777C117.668 303.862 117.407 303.029 116.884 302.278C116.362 301.527 115.48 301.151 114.239 301.151H109.633V308.305Z" fill="black"/>
<path d="M134.052 327.51C133.725 327.51 133.431 327.396 133.17 327.167C132.909 326.906 132.778 326.596 132.778 326.236V294.488C132.778 294.129 132.909 293.835 133.17 293.606C133.431 293.345 133.725 293.214 134.052 293.214H158.059C158.418 293.214 158.729 293.345 158.99 293.606C159.251 293.835 159.382 294.129 159.382 294.488V300.27C159.382 300.596 159.251 300.89 158.99 301.151C158.729 301.413 158.418 301.543 158.059 301.543H142.92V306.394H156.981C157.34 306.394 157.651 306.524 157.912 306.786C158.173 307.014 158.304 307.308 158.304 307.668V312.959C158.304 313.318 158.173 313.628 157.912 313.89C157.651 314.118 157.34 314.233 156.981 314.233H142.92V319.181H158.451C158.81 319.181 159.12 319.312 159.382 319.573C159.643 319.834 159.774 320.145 159.774 320.504V326.236C159.774 326.596 159.643 326.906 159.382 327.167C159.12 327.396 158.81 327.51 158.451 327.51H134.052Z" fill="black"/>
<path d="M166.061 327.51C165.734 327.51 165.44 327.396 165.179 327.167C164.917 326.906 164.787 326.596 164.787 326.236V294.488C164.787 294.129 164.917 293.835 165.179 293.606C165.44 293.345 165.734 293.214 166.061 293.214H172.577C173.165 293.214 173.589 293.361 173.851 293.655C174.112 293.917 174.292 294.113 174.39 294.243L184.482 310.46V294.488C184.482 294.129 184.613 293.835 184.874 293.606C185.136 293.345 185.43 293.214 185.756 293.214H193.154C193.514 293.214 193.807 293.345 194.036 293.606C194.297 293.835 194.428 294.129 194.428 294.488V326.236C194.428 326.596 194.297 326.906 194.036 327.167C193.807 327.396 193.514 327.51 193.154 327.51H186.687C186.066 327.51 185.626 327.379 185.364 327.118C185.103 326.824 184.923 326.612 184.825 326.481L174.733 311.195V326.236C174.733 326.596 174.602 326.906 174.341 327.167C174.112 327.396 173.818 327.51 173.459 327.51H166.061Z" fill="black"/>
<path d="M214.147 328C210.717 328 207.859 327.526 205.573 326.579C203.319 325.599 201.62 324.342 200.477 322.807C199.367 321.239 198.779 319.589 198.714 317.858C198.714 317.564 198.811 317.319 199.007 317.123C199.203 316.927 199.448 316.829 199.742 316.829H207.532C207.99 316.829 208.349 316.911 208.61 317.074C208.872 317.205 209.149 317.401 209.443 317.662C209.737 318.022 210.08 318.365 210.472 318.691C210.864 318.985 211.37 319.23 211.991 319.426C212.611 319.589 213.33 319.671 214.147 319.671C215.649 319.671 216.809 319.475 217.625 319.083C218.442 318.659 218.85 318.087 218.85 317.368C218.85 316.813 218.621 316.356 218.164 315.997C217.739 315.637 217.005 315.311 215.959 315.017C214.914 314.723 213.493 314.412 211.697 314.086C209.182 313.661 207.01 313.041 205.181 312.224C203.352 311.375 201.947 310.248 200.967 308.843C200.02 307.406 199.546 305.643 199.546 303.552C199.546 301.429 200.134 299.551 201.31 297.918C202.519 296.285 204.184 295.011 206.308 294.096C208.463 293.182 210.962 292.724 213.804 292.724C216.155 292.724 218.229 293.035 220.026 293.655C221.855 294.276 223.39 295.092 224.631 296.105C225.872 297.085 226.82 298.146 227.473 299.29C228.126 300.433 228.469 301.527 228.502 302.572C228.502 302.866 228.387 303.127 228.159 303.356C227.963 303.552 227.734 303.65 227.473 303.65H219.291C218.899 303.65 218.556 303.585 218.262 303.454C218.001 303.323 217.756 303.111 217.527 302.817C217.364 302.36 216.956 301.952 216.302 301.592C215.649 301.233 214.816 301.053 213.804 301.053C212.693 301.053 211.844 301.249 211.256 301.641C210.668 302.001 210.374 302.54 210.374 303.258C210.374 303.748 210.554 304.173 210.913 304.532C211.272 304.891 211.909 305.218 212.824 305.512C213.738 305.773 215.012 306.067 216.645 306.394C219.748 306.851 222.247 307.504 224.141 308.353C226.068 309.203 227.473 310.313 228.355 311.685C229.237 313.057 229.678 314.772 229.678 316.829C229.678 319.148 229.008 321.141 227.669 322.807C226.33 324.472 224.484 325.763 222.133 326.677C219.813 327.559 217.151 328 214.147 328Z" fill="black"/>
<path d="M235.15 327.51C234.823 327.51 234.529 327.396 234.268 327.167C234.006 326.906 233.876 326.596 233.876 326.236V294.488C233.876 294.129 234.006 293.835 234.268 293.606C234.529 293.345 234.823 293.214 235.15 293.214H259.157C259.516 293.214 259.826 293.345 260.087 293.606C260.349 293.835 260.479 294.129 260.479 294.488V300.27C260.479 300.596 260.349 300.89 260.087 301.151C259.826 301.413 259.516 301.543 259.157 301.543H244.017V306.394H258.079C258.438 306.394 258.748 306.524 259.01 306.786C259.271 307.014 259.401 307.308 259.401 307.668V312.959C259.401 313.318 259.271 313.628 259.01 313.89C258.748 314.118 258.438 314.233 258.079 314.233H244.017V319.181H259.548C259.908 319.181 260.218 319.312 260.479 319.573C260.741 319.834 260.871 320.145 260.871 320.504V326.236C260.871 326.596 260.741 326.906 260.479 327.167C260.218 327.396 259.908 327.51 259.548 327.51H235.15Z" fill="black"/>
<path d="M279.456 328C276.026 328 273.168 327.526 270.882 326.579C268.628 325.599 266.93 324.342 265.786 322.807C264.676 321.239 264.088 319.589 264.023 317.858C264.023 317.564 264.121 317.319 264.317 317.123C264.513 316.927 264.758 316.829 265.051 316.829H272.841C273.299 316.829 273.658 316.911 273.919 317.074C274.181 317.205 274.458 317.401 274.752 317.662C275.046 318.022 275.389 318.365 275.781 318.691C276.173 318.985 276.679 319.23 277.3 319.426C277.921 319.589 278.639 319.671 279.456 319.671C280.958 319.671 282.118 319.475 282.934 319.083C283.751 318.659 284.159 318.087 284.159 317.368C284.159 316.813 283.93 316.356 283.473 315.997C283.049 315.637 282.314 315.311 281.268 315.017C280.223 314.723 278.802 314.412 277.006 314.086C274.491 313.661 272.319 313.041 270.49 312.224C268.661 311.375 267.256 310.248 266.276 308.843C265.329 307.406 264.855 305.643 264.855 303.552C264.855 301.429 265.443 299.551 266.619 297.918C267.828 296.285 269.494 295.011 271.617 294.096C273.772 293.182 276.271 292.724 279.113 292.724C281.464 292.724 283.538 293.035 285.335 293.655C287.164 294.276 288.699 295.092 289.94 296.105C291.182 297.085 292.129 298.146 292.782 299.29C293.435 300.433 293.778 301.527 293.811 302.572C293.811 302.866 293.697 303.127 293.468 303.356C293.272 303.552 293.043 303.65 292.782 303.65H284.6C284.208 303.65 283.865 303.585 283.571 303.454C283.31 303.323 283.065 303.111 282.836 302.817C282.673 302.36 282.265 301.952 281.611 301.592C280.958 301.233 280.125 301.053 279.113 301.053C278.002 301.053 277.153 301.249 276.565 301.641C275.977 302.001 275.683 302.54 275.683 303.258C275.683 303.748 275.863 304.173 276.222 304.532C276.581 304.891 277.218 305.218 278.133 305.512C279.047 305.773 280.321 306.067 281.954 306.394C285.057 306.851 287.556 307.504 289.45 308.353C291.377 309.203 292.782 310.313 293.664 311.685C294.546 313.057 294.987 314.772 294.987 316.829C294.987 319.148 294.317 321.141 292.978 322.807C291.639 324.472 289.793 325.763 287.442 326.677C285.123 327.559 282.461 328 279.456 328Z" fill="black"/>
<defs>
<filter id="filter0_d_4777_294" x="135.266" y="19.265" width="152.998" height="152.595" filterUnits="userSpaceOnUse" color-interpolation-filters="sRGB">
<feFlood flood-opacity="0" result="BackgroundImageFix"/>
<feColorMatrix in="SourceAlpha" type="matrix" values="0 0 0 0 0 0 0 0 0 0 0 0 0 0 0 0 0 0 127 0" result="hardAlpha"/>
<feOffset/>
<feGaussianBlur stdDeviation="2.8333"/>
<feComposite in2="hardAlpha" operator="out"/>
<feColorMatrix type="matrix" values="0 0 0 0 0 0 0 0 0 0 0 0 0 0 0 0 0 0 0.25 0"/>
<feBlend mode="normal" in2="BackgroundImageFix" result="effect1_dropShadow_4777_294"/>
<feBlend mode="normal" in="SourceGraphic" in2="effect1_dropShadow_4777_294" result="shape"/>
</filter>
<filter id="filter1_d_4777_294" x="26.986" y="62.9865" width="107.099" height="106.814" filterUnits="userSpaceOnUse" color-interpolation-filters="sRGB">
<feFlood flood-opacity="0" result="BackgroundImageFix"/>
<feColorMatrix in="SourceAlpha" type="matrix" values="0 0 0 0 0 0 0 0 0 0 0 0 0 0 0 0 0 0 127 0" result="hardAlpha"/>
<feOffset/>
<feGaussianBlur stdDeviation="1.98331"/>
<feComposite in2="hardAlpha" operator="out"/>
<feColorMatrix type="matrix" values="0 0 0 0 0 0 0 0 0 0 0 0 0 0 0 0 0 0 0.25 0"/>
<feBlend mode="normal" in2="BackgroundImageFix" result="effect1_dropShadow_4777_294"/>
<feBlend mode="normal" in="SourceGraphic" in2="effect1_dropShadow_4777_294" result="shape"/>
</filter>
</defs>
</svg>
