<svg width="108" height="92" viewBox="0 0 108 92" fill="none" xmlns="http://www.w3.org/2000/svg">
<path fill-rule="evenodd" clip-rule="evenodd" d="M51.8075 0.2625C53.0225 -0.0875 54.3075 -0.0875 55.5225 0.2625C58.1125 0.9975 60.7225 1.6775 63.3425 2.3625C75.6475 5.5675 88.1425 8.8275 99.2625 17.8825L104.383 22.0525C106.458 23.7425 107.497 26.2525 107.497 28.7525V63.7525C107.497 64.7471 107.102 65.7009 106.399 66.4042C105.696 67.1074 104.742 67.5025 103.747 67.5025C102.753 67.5025 101.799 67.1074 101.096 66.4042C100.393 65.7009 99.9975 64.7471 99.9975 63.7525V39.0375L99.1825 39.7025C95.4988 42.6891 91.4741 45.2285 87.1925 47.2675C87.3925 47.7242 87.4942 48.2192 87.4975 48.7525V70.2225C87.4974 72.9909 86.6616 75.6948 85.0995 77.9804C83.5374 80.266 81.3218 82.0268 78.7425 83.0325L58.7425 90.8325C55.5303 92.085 51.9647 92.085 48.7525 90.8325L28.7525 83.0325C26.1732 82.0268 23.9576 80.266 22.3955 77.9804C20.8334 75.6948 19.9976 72.9909 19.9975 70.2225V48.7525C20.0008 48.2092 20.1075 47.7025 20.3175 47.2325C16.1675 45.2375 12.1175 42.7825 8.2325 39.6225L3.1125 35.4525C-1.0375 32.0675 -1.0375 25.4375 3.1125 22.0525L8.3125 17.8025C19.3475 8.8025 31.7575 5.5575 43.9725 2.3675C46.5918 1.69449 49.2036 0.992779 51.8075 0.2625ZM99.9975 28.7575C99.9975 28.3075 99.8175 28.0075 99.6475 27.8675L94.5275 23.6975C83.7475 16.2525 74.1375 12.9675 61.9475 9.7625C59.1806 9.04519 56.4204 8.30182 53.6675 7.5325C50.8175 8.3375 48.0475 9.0675 45.3575 9.7775C33.2575 12.9575 22.7125 15.7325 13.0575 23.6175L7.8525 27.8625C7.6775 28.0025 7.4975 28.2975 7.4975 28.7475C7.4975 29.1975 7.6775 29.4975 7.8475 29.6375L12.9725 33.8075C22.7125 41.7425 33.3525 44.5375 45.5475 47.7425C48.2308 48.4358 50.9908 49.1792 53.8275 49.9725C56.6775 49.1675 59.4475 48.4375 62.1375 47.7275C74.2375 44.5475 84.7825 41.7725 94.4375 33.8925L99.6425 29.6425C99.8175 29.5025 99.9975 29.2075 99.9975 28.7575ZM63.5275 55.1375C69.0275 53.7025 74.5625 52.2525 79.9975 50.2775V70.2225C79.9975 72.7975 78.4175 75.1075 76.0175 76.0475L56.0175 83.8425C54.5577 84.4116 52.9373 84.4116 51.4775 83.8425L31.4775 76.0425C30.3055 75.5856 29.2985 74.7857 28.5885 73.7473C27.8784 72.7089 27.4981 71.4805 27.4975 70.2225V50.2325C32.9925 52.2325 38.5925 53.6925 44.1475 55.1425C46.7725 55.8275 49.3825 56.5075 51.9725 57.2425C53.1875 57.5925 54.4725 57.5925 55.6875 57.2425C58.2825 56.5025 60.8975 55.8225 63.5275 55.1375Z" fill="#2167CE"/>
</svg>
