<svg width="47" height="46" viewBox="0 0 47 46" fill="none" xmlns="http://www.w3.org/2000/svg">
<path d="M23.4 0C20.3271 0 17.2842 0.603056 14.4452 1.77473C11.6062 2.94641 9.02659 4.66377 6.8537 6.82875C2.46535 11.2011 0 17.1313 0 23.3148C0 33.62 6.7158 42.363 16.0056 45.4639C17.1756 45.6504 17.55 44.9276 17.55 44.2981V40.3579C11.0682 41.7568 9.6876 37.2338 9.6876 37.2338C8.6112 34.5292 7.0902 33.8065 7.0902 33.8065C4.9608 32.361 7.254 32.4076 7.254 32.4076C9.594 32.5708 10.8342 34.809 10.8342 34.809C12.87 38.3529 16.3098 37.3037 17.6436 36.7441C17.8542 35.2287 18.4626 34.2028 19.1178 33.62C13.923 33.0371 8.4708 31.032 8.4708 22.1491C8.4708 19.5611 9.36 17.4861 10.881 15.8308C10.647 15.2479 9.828 12.8231 11.115 9.67565C11.115 9.67565 13.0806 9.04615 17.55 12.0538C19.3986 11.5408 21.411 11.2844 23.4 11.2844C25.389 11.2844 27.4014 11.5408 29.25 12.0538C33.7194 9.04615 35.685 9.67565 35.685 9.67565C36.972 12.8231 36.153 15.2479 35.919 15.8308C37.44 17.4861 38.3292 19.5611 38.3292 22.1491C38.3292 31.0553 32.8536 33.0138 27.6354 33.5966C28.4778 34.3194 29.25 35.7416 29.25 37.9099V44.2981C29.25 44.9276 29.6244 45.6737 30.8178 45.4639C40.1076 42.3397 46.8 33.62 46.8 23.3148C46.8 20.2531 46.1947 17.2213 45.0188 14.3926C43.8428 11.5639 42.1192 8.99373 39.9463 6.82875C37.7734 4.66377 35.1938 2.94641 32.3548 1.77473C29.5158 0.603056 26.4729 0 23.4 0Z" fill="#2167CE"/>
</svg>
