<svg width="49" height="49" viewBox="0 0 49 49" fill="none" xmlns="http://www.w3.org/2000/svg">
<path d="M24.0435 16.0299C19.6275 16.0299 16.0236 19.6338 16.0236 24.05C16.0236 28.4662 19.6275 32.0701 24.0435 32.0701C28.4596 32.0701 32.0635 28.4662 32.0635 24.05C32.0635 19.6338 28.4596 16.0299 24.0435 16.0299ZM48.0973 24.05C48.0973 20.7289 48.1274 17.4378 47.9409 14.1227C47.7544 10.2721 46.876 6.85466 44.0603 4.0389C41.2386 1.21714 37.8272 0.344734 33.9767 0.15822C30.6556 -0.0282933 27.3646 0.00178959 24.0495 0.00178959C20.7285 0.00178959 17.4375 -0.0282933 14.1224 0.15822C10.2719 0.344734 6.85453 1.22315 4.03883 4.0389C1.21711 6.86067 0.344727 10.2721 0.158217 14.1227C-0.0282928 17.4438 0.00178956 20.7349 0.00178956 24.05C0.00178956 27.3651 -0.0282928 30.6622 0.158217 33.9773C0.344727 37.8279 1.22313 41.2453 4.03883 44.0611C6.86055 46.8829 10.2719 47.7553 14.1224 47.9418C17.4435 48.1283 20.7345 48.0982 24.0495 48.0982C27.3706 48.0982 30.6616 48.1283 33.9767 47.9418C37.8272 47.7553 41.2446 46.8768 44.0603 44.0611C46.882 41.2393 47.7544 37.8279 47.9409 33.9773C48.1334 30.6622 48.0973 27.3711 48.0973 24.05ZM24.0435 36.39C17.2149 36.39 11.7038 30.8788 11.7038 24.05C11.7038 17.2212 17.2149 11.71 24.0435 11.71C30.8722 11.71 36.3833 17.2212 36.3833 24.05C36.3833 30.8788 30.8722 36.39 24.0435 36.39ZM36.8887 14.0866C35.2943 14.0866 34.0068 12.799 34.0068 11.2046C34.0068 9.61024 35.2943 8.3227 36.8887 8.3227C38.483 8.3227 39.7705 9.61024 39.7705 11.2046C39.771 11.5832 39.6968 11.9582 39.5521 12.3081C39.4075 12.6579 39.1952 12.9758 38.9275 13.2435C38.6598 13.5112 38.3419 13.7235 37.9921 13.8682C37.6422 14.0128 37.2672 14.087 36.8887 14.0866Z" fill="#2167CE"/>
</svg>
