<svg width="106" height="99" viewBox="0 0 106 99" fill="none" xmlns="http://www.w3.org/2000/svg">
<path d="M63 83C81.855 83 91.285 83 97.14 77.14C102.995 71.28 103 61.855 103 43C103 24.145 103 14.715 97.14 8.86C91.28 3.005 81.855 3 63 3H43C24.145 3 14.715 3 8.86 8.86C3.005 14.72 3 24.145 3 43C3 61.855 3 71.285 8.86 77.14C12.125 80.41 16.5 81.855 23 82.49" stroke="#2167CE" stroke-width="6" stroke-linecap="round" stroke-linejoin="round"/>
<path d="M63.0002 83C56.8202 83 50.0102 85.5 43.7952 88.725C33.8052 93.91 28.8102 96.505 26.3502 94.85C23.8902 93.195 24.3552 88.075 25.2902 77.83L25.5002 75.5" stroke="#2167CE" stroke-width="6" stroke-linecap="round"/>
<path d="M20.5 55.5L25.5 45.5M25.5 45.5L31.03 34.445C31.4457 33.6156 32.084 32.9182 32.8734 32.4308C33.6628 31.9435 34.5723 31.6853 35.5 31.6853C36.4277 31.6853 37.3372 31.9435 38.1266 32.4308C38.916 32.9182 39.5543 33.6156 39.97 34.445L45.5 45.5M25.5 45.5H45.5M45.5 45.5L50.5 55.5M55.5 25.5H65.41V33C65.41 35.5 62.93 40.5 57.975 40.5M77.795 25.5V35.5M77.795 35.5V55.5M77.795 35.5H85.5" stroke="#2167CE" stroke-width="6" stroke-linecap="round" stroke-linejoin="round"/>
</svg>
