<svg width="47" height="47" viewBox="0 0 47 47" fill="none" xmlns="http://www.w3.org/2000/svg">
<path d="M41.6 0C42.9791 0 44.3018 0.547855 45.277 1.52304C46.2521 2.49823 46.8 3.82087 46.8 5.2V41.6C46.8 42.9791 46.2521 44.3018 45.277 45.277C44.3018 46.2521 42.9791 46.8 41.6 46.8H5.2C3.82087 46.8 2.49823 46.2521 1.52304 45.277C0.547855 44.3018 0 42.9791 0 41.6V5.2C0 3.82087 0.547855 2.49823 1.52304 1.52304C2.49823 0.547855 3.82087 0 5.2 0H41.6ZM40.3 40.3V26.52C40.3 24.272 39.407 22.1161 37.8174 20.5266C36.2279 18.937 34.072 18.044 31.824 18.044C29.614 18.044 27.04 19.396 25.792 21.424V18.538H18.538V40.3H25.792V27.482C25.792 25.48 27.404 23.842 29.406 23.842C30.3714 23.842 31.2972 24.2255 31.9799 24.9081C32.6625 25.5908 33.046 26.5166 33.046 27.482V40.3H40.3ZM10.088 14.456C11.2465 14.456 12.3575 13.9958 13.1766 13.1766C13.9958 12.3575 14.456 11.2465 14.456 10.088C14.456 7.67 12.506 5.694 10.088 5.694C8.92264 5.694 7.80501 6.15694 6.98097 6.98097C6.15694 7.80501 5.694 8.92264 5.694 10.088C5.694 12.506 7.67 14.456 10.088 14.456ZM13.702 40.3V18.538H6.5V40.3H13.702Z" fill="#2167CE"/>
</svg>
