<svg width="565" height="549" viewBox="0 0 565 549" fill="none" xmlns="http://www.w3.org/2000/svg">
<path d="M180.064 96.7063C261.564 -29.7958 420.564 -14.7946 486.064 43.2063C553.564 87.7064 546.54 239 511.564 253.706C487.04 264.018 465.54 168.516 385.564 194.206C285.607 226.315 339.336 311.056 388.5 314C437.663 316.945 501.999 238 536.064 316.706C564.3 381.944 419.54 414 344.54 403C285.015 394.27 239.015 359.294 216.04 289.5C211.54 295.668 203.172 342.837 216.04 385C230.005 430.76 315.579 435.531 363.433 438.199L363.54 438.204C404.039 438.204 508.38 391.077 536.5 385C564.619 378.924 571.268 479.442 556.064 499.207C516.063 551.207 212.627 556.2 151.563 540.707C90.4997 525.215 72.3923 529.5 52.5397 453C-8.96397 216.001 -3.93684 134.206 6.06316 90.7063C14.0632 55.9065 34.0632 41.873 43.0632 39.2063C125.862 4.80852 168.896 63.2071 180.064 96.7063ZM493.231 183.373C472.707 -90.1268 200.318 74.4307 163 183.373C146 233.001 139.206 283.5 120.706 293.5C103.207 288.5 126.5 241.205 126.5 209.501C126.5 164.07 125.872 159.54 120.706 133.873C103.706 73.8733 76.0655 79.2004 64.2302 84.0794C7.23058 107.578 86.8993 391.072 93.7311 431.577C110.5 531 329.731 516.91 436.231 508.577C546.731 492.58 528.706 438.873 504.706 435.373C450.706 439.873 442.282 469.873 308.707 469.873C101.707 469.873 161.151 328.127 174.707 252.373C200.207 109.873 354.207 50.8733 418.707 79.8733C470.785 103.289 445.206 145.373 409.707 121.873C391.707 106.373 341.707 119.373 302.731 148.577C217.641 212.335 232.813 319.977 314.207 358.579C390.731 394.873 498.23 354.873 508.73 334.373C516.466 319.27 502.231 291.874 472.707 318.577C425.207 370.577 256.825 343.077 290.207 225.577C316.912 131.577 438.207 136.873 493.231 183.373Z" fill="#2167CE"/>
</svg>
