<svg width="47" height="47" viewBox="0 0 47 47" fill="none" xmlns="http://www.w3.org/2000/svg">
<path d="M23.3993 18.8968C22.3084 18.8852 21.2388 19.1983 20.3264 19.7963C19.414 20.3943 18.7001 21.2502 18.2755 22.2551C17.8508 23.26 17.7347 24.3684 17.9418 25.4395C18.1489 26.5106 18.6699 27.4958 19.4386 28.27C20.2072 29.0441 21.1887 29.5721 22.2583 29.7869C23.3278 30.0016 24.4371 29.8934 25.445 29.476C26.4529 29.0586 27.3138 28.3508 27.9183 27.4427C28.5228 26.5346 28.8436 25.4672 28.8398 24.3763C28.8423 23.6593 28.7036 22.9488 28.4316 22.2854C28.1596 21.6219 27.7596 21.0186 27.2544 20.5098C26.7492 20.001 26.1487 19.5966 25.4872 19.3199C24.8258 19.0431 24.1163 18.8994 23.3993 18.8968Z" fill="#2167CE"/>
<path d="M23.4 0C18.7719 0 14.2478 1.37239 10.3997 3.94361C6.55156 6.51484 3.55232 10.1694 1.78123 14.4452C0.0101389 18.721 -0.453259 23.426 0.449635 27.9651C1.35253 32.5043 3.58116 36.6738 6.85371 39.9463C10.1263 43.2189 14.2957 45.4475 18.8349 46.3504C23.3741 47.2533 28.079 46.7899 32.3548 45.0188C36.6306 43.2477 40.2852 40.2485 42.8564 36.4003C45.4276 32.5522 46.8 28.0281 46.8 23.4C46.8 17.1939 44.3347 11.2421 39.9463 6.8537C35.558 2.46535 29.6061 0 23.4 0ZM34.2615 30.4785C37.128 30.4785 38.61 26.871 38.61 23.322C38.6145 19.8581 37.3203 16.5184 34.983 13.962C33.3533 12.3578 31.4068 11.1112 29.268 10.302C27.1291 9.49279 24.845 9.13875 22.5615 9.2625C18.7308 9.31391 15.0769 10.8824 12.401 13.6241C9.72517 16.3657 8.24586 20.0567 8.28751 23.8875C8.23009 27.6996 9.68563 31.379 12.3354 34.1202C14.9852 36.8613 18.6132 38.4407 22.425 38.5125C24.9043 38.5082 27.3364 37.8345 29.4645 36.5625C29.6224 36.4129 29.8116 36.3003 30.0185 36.2331C30.2253 36.1659 30.4446 36.1456 30.6602 36.1738C30.8759 36.202 31.0826 36.278 31.2652 36.3962C31.4478 36.5143 31.6017 36.6717 31.7158 36.8569C31.8299 37.0421 31.9012 37.2504 31.9246 37.4667C31.948 37.6829 31.9229 37.9016 31.851 38.1069C31.7792 38.3122 31.6625 38.4989 31.5094 38.6534C31.3563 38.8079 31.1707 38.9263 30.966 39C28.384 40.5425 25.4327 41.3578 22.425 41.3595C17.8374 41.2876 13.4655 39.4 10.2672 36.1103C7.06891 32.8207 5.30518 28.3973 5.36251 23.8095C5.32606 19.2045 7.11524 14.7725 10.3385 11.4835C13.5618 8.19442 17.9567 6.31608 22.5615 6.2595C25.243 6.13507 27.9204 6.57987 30.4176 7.56463C32.9148 8.5494 35.1752 10.0518 37.05 11.973C39.9321 15.0804 41.5341 19.1618 41.535 23.4C41.535 29.25 38.4735 33.4815 34.2615 33.4815C33.3268 33.5491 32.3915 33.3572 31.5588 32.9271C30.7262 32.497 30.0284 31.8454 29.5425 31.044C29.5063 30.9843 29.4582 30.9327 29.4012 30.8924C29.3441 30.8521 29.2794 30.8241 29.211 30.81C29.14 30.7915 29.0655 30.7907 28.9941 30.8077C28.9227 30.8247 28.8566 30.859 28.8015 30.9075C27.3089 32.1719 25.4147 32.8632 23.4585 32.8575C21.297 32.7534 19.2584 31.8215 17.7655 30.2549C16.2725 28.6883 15.4397 26.6073 15.4397 24.4433C15.4397 22.2792 16.2725 20.1982 17.7655 18.6316C19.2584 17.065 21.297 16.1331 23.4585 16.029C25.1246 16.0311 26.7504 16.5413 28.119 17.4915C28.1954 17.538 28.2831 17.5626 28.3725 17.5626C28.4619 17.5626 28.5496 17.538 28.626 17.4915C28.708 17.4539 28.7774 17.3934 28.8259 17.3173C28.8743 17.2412 28.8997 17.1527 28.899 17.0625V15.8535C28.899 15.4656 29.0531 15.0936 29.3274 14.8194C29.6016 14.5451 29.9736 14.391 30.3615 14.391C30.7494 14.391 31.1214 14.5451 31.3957 14.8194C31.6699 15.0936 31.824 15.4656 31.824 15.8535V28.4895C31.824 29.796 32.643 30.4785 34.2615 30.4785Z" fill="#2167CE"/>
</svg>
